<?xml version="1.0" encoding="UTF-8"?>
<!DOCTYPE svg PUBLIC "-//W3C//DTD SVG 1.1//EN" "http://www.w3.org/Graphics/SVG/1.1/DTD/svg11.dtd">
<!-- Creator: CorelDRAW X8 -->
<svg xmlns="http://www.w3.org/2000/svg" xml:space="preserve" width="297mm" height="80mm" version="1.1" style="shape-rendering:geometricPrecision; text-rendering:geometricPrecision; image-rendering:optimizeQuality; fill-rule:evenodd; clip-rule:evenodd"
viewBox="0 0 29700 8000"
 xmlns:xlink="http://www.w3.org/1999/xlink">
 <defs>
  <style type="text/css">
   <![CDATA[
    .fil0 {fill:none}
    .fil15 {fill:black;fill-rule:nonzero}
    .fil6 {fill:#414044;fill-rule:nonzero}
    .fil11 {fill:#EA2839;fill-rule:nonzero}
    .fil13 {fill:#EC2639;fill-rule:nonzero}
    .fil12 {fill:white;fill-rule:nonzero}
    .fil1 {fill:url(#id0)}
    .fil8 {fill:url(#id1)}
    .fil5 {fill:url(#id2)}
    .fil9 {fill:url(#id3)}
    .fil14 {fill:url(#id4)}
    .fil4 {fill:url(#id5)}
    .fil2 {fill:url(#id6)}
    .fil10 {fill:url(#id7)}
    .fil7 {fill:url(#id8)}
    .fil3 {fill:url(#id9)}
   ]]>
  </style>
  <linearGradient id="id0" gradientUnits="userSpaceOnUse" x1="21777" y1="4089.59" x2="22238.2" y2="4888.35">
   <stop offset="0" style="stop-opacity:1; stop-color:#1288C9"/>
   <stop offset="0.2" style="stop-opacity:1; stop-color:#0E75BC"/>
   <stop offset="0.388235" style="stop-opacity:1; stop-color:#1375BB"/>
   <stop offset="0.941176" style="stop-opacity:1; stop-color:#0A62AE"/>
   <stop offset="1" style="stop-opacity:1; stop-color:#0A62AE"/>
  </linearGradient>
  <linearGradient id="id1" gradientUnits="userSpaceOnUse" x1="20548.7" y1="2764.64" x2="20548.7" y2="5152.2">
   <stop offset="0" style="stop-opacity:1; stop-color:#1688C9"/>
   <stop offset="0.478431" style="stop-opacity:1; stop-color:#1475BC"/>
   <stop offset="1" style="stop-opacity:1; stop-color:#1162AE"/>
  </linearGradient>
  <linearGradient id="id2" gradientUnits="userSpaceOnUse" xlink:href="#id1" x1="24216.4" y1="2749.64" x2="24216.4" y2="5152.2">
  </linearGradient>
  <linearGradient id="id3" gradientUnits="userSpaceOnUse" xlink:href="#id1" x1="26376" y1="2763.17" x2="26373.4" y2="5152.2">
  </linearGradient>
  <linearGradient id="id4" gradientUnits="userSpaceOnUse" xlink:href="#id1" x1="14422.2" y1="3696.58" x2="17515.2" y2="3696.58">
  </linearGradient>
  <linearGradient id="id5" gradientUnits="userSpaceOnUse" xlink:href="#id1" x1="21716" y1="2763.17" x2="21716" y2="5152.2">
  </linearGradient>
  <linearGradient id="id6" gradientUnits="userSpaceOnUse" xlink:href="#id0" x1="25633" y1="4089.59" x2="26094.2" y2="4888.35">
  </linearGradient>
  <linearGradient id="id7" gradientUnits="userSpaceOnUse" xlink:href="#id1" x1="25576.7" y1="2763.17" x2="25576.7" y2="5152.2">
  </linearGradient>
  <linearGradient id="id8" gradientUnits="userSpaceOnUse" xlink:href="#id1" x1="26486.7" y1="2763.17" x2="26486.7" y2="3604.45">
  </linearGradient>
  <linearGradient id="id9" gradientUnits="userSpaceOnUse" xlink:href="#id1" x1="22514" y1="2763.17" x2="22514" y2="5152.2">
  </linearGradient>
 </defs>
 <g id="Camada_x0020_1">
  <metadata id="CorelCorpID_0Corel-Layer"/>
  <rect class="fil0" width="29700" height="8000"/>
  <g id="_2214217196368">
   <polygon class="fil1" points="21491,4723 22524,4723 22524,4723 22524,4255 21491,4255 21491,4723 "/>
   <polygon class="fil2" points="25347,4723 26380,4723 26380,4723 26380,4255 26380,4255 25347,4255 "/>
   <polygon class="fil3" points="22393,2763 21833,2763 22604,5152 23195,5152 "/>
   <polygon class="fil4" points="22387,2763 21814,2763 21792,2834 21045,5152 21618,5152 "/>
   <path class="fil5" d="M24156 2750l-6 0 -916 0 0 2402 567 0 0 -953 197 0 522 953 679 0 -628 -1028c156,-48 278,-127 366,-238l0 0c89,-110 133,-247 133,-410l0 0c0,-138 -26,-254 -78,-346l0 0c-52,-93 -122,-168 -209,-224l0 0c-87,-57 -185,-97 -295,-121l0 0c-108,-23 -219,-35 -332,-35zm-359 468l311 0c43,0 88,3 134,10l0 0c47,7 89,20 126,39l0 0c38,19 69,47 93,82l0 0c23,35 35,80 35,137l0 0c0,61 -13,111 -39,149l0 0c-26,39 -59,68 -100,89l0 0c-41,20 -87,34 -137,42l0 0c-50,8 -99,12 -146,12l0 0 -277 0 0 -560z"/>
   <path class="fil6" d="M20059 2458c-35,8 -74,13 -117,13 -43,0 -84,-7 -120,-21 -37,-14 -69,-34 -95,-59 -27,-25 -48,-55 -63,-91 -15,-35 -22,-74 -22,-117 0,-44 8,-84 23,-119 15,-36 36,-66 63,-91 26,-25 58,-44 94,-58 36,-13 75,-20 117,-20 43,0 83,7 120,20 37,13 67,31 90,53l-83 95c-13,-15 -30,-27 -51,-37 -21,-9 -45,-14 -72,-14 -23,0 -44,4 -64,13 -20,8 -36,20 -51,35 -14,16 -25,34 -33,54 -8,21 -12,44 -12,69 0,25 3,48 10,69 8,21 18,40 32,55 15,15 32,27 53,35 21,9 45,13 71,13 16,0 31,-1 44,-3 14,-3 27,-7 39,-12l0 -99 -104 0 0 -107 225 0 0 290c-27,14 -58,25 -94,34z"/>
   <path class="fil6" d="M20875 2181c0,-23 -4,-46 -12,-66 -8,-21 -18,-38 -32,-53 -14,-15 -30,-26 -49,-35 -20,-8 -41,-13 -64,-13 -23,0 -45,5 -64,13 -19,9 -35,20 -49,35 -14,15 -24,32 -32,53 -7,20 -11,43 -11,66 0,25 4,48 11,69 8,20 19,38 32,53 14,15 30,27 49,35 19,9 41,13 64,13 23,0 44,-4 63,-13 19,-8 36,-20 50,-35 14,-15 24,-33 32,-53 8,-21 12,-44 12,-69zm141 0c0,43 -8,83 -22,119 -15,36 -36,66 -63,92 -26,25 -58,45 -94,59 -37,14 -76,21 -119,21 -43,0 -82,-7 -119,-21 -36,-14 -67,-34 -94,-59 -27,-26 -47,-56 -62,-92 -15,-36 -23,-76 -23,-119 0,-44 8,-83 23,-118 15,-36 35,-66 62,-90 27,-25 58,-44 94,-58 37,-13 76,-20 119,-20 43,0 82,7 119,20 36,14 68,33 94,58 27,24 48,54 63,90 14,35 22,74 22,118z"/>
   <polygon class="fil6" points="21559,2457 21427,2457 21220,1910 21368,1910 21495,2298 21498,2298 21624,1910 21770,1910 "/>
   <polygon class="fil6" points="21999,2457 21999,1910 22367,1910 22367,2021 22127,2021 22127,2125 22354,2125 22354,2231 22127,2231 22127,2344 22381,2344 22381,2457 "/>
   <path class="fil6" d="M22940 2078c0,-13 -3,-24 -8,-32 -6,-8 -13,-14 -21,-18 -9,-5 -18,-7 -29,-9 -11,-2 -21,-2 -31,-2l-70 0 0 127 63 0c11,0 22,-1 33,-3 11,-1 22,-5 31,-9 9,-5 17,-12 23,-20 6,-9 9,-20 9,-34zm5 379l-118 -217 -45 0 0 217 -129 0 0 -547 208 0c26,0 52,3 77,8 25,6 47,15 67,28 20,12 36,30 48,51 12,21 17,47 17,78 0,37 -10,69 -30,94 -20,25 -48,43 -83,54l143 234 -155 0z"/>
   <polygon class="fil6" points="23697,2457 23477,2099 23474,2099 23477,2457 23349,2457 23349,1910 23500,1910 23719,2267 23722,2267 23718,1910 23847,1910 23847,2457 "/>
   <path class="fil6" d="M24573 2181c0,-23 -4,-46 -12,-66 -8,-21 -18,-38 -32,-53 -14,-15 -30,-26 -49,-35 -20,-8 -41,-13 -64,-13 -23,0 -44,5 -63,13 -20,9 -36,20 -50,35 -14,15 -24,32 -32,53 -7,20 -11,43 -11,66 0,25 4,48 11,69 8,20 19,38 32,53 14,15 30,27 50,35 19,9 40,13 63,13 23,0 44,-4 63,-13 19,-8 36,-20 50,-35 14,-15 24,-33 32,-53 8,-21 12,-44 12,-69zm141 0c0,43 -8,83 -22,119 -15,36 -36,66 -63,92 -26,25 -58,45 -94,59 -37,14 -76,21 -119,21 -43,0 -82,-7 -119,-21 -36,-14 -67,-34 -94,-59 -27,-26 -47,-56 -62,-92 -15,-36 -22,-76 -22,-119 0,-44 7,-83 22,-118 15,-36 35,-66 62,-90 27,-25 58,-44 94,-58 37,-13 76,-20 119,-20 43,0 82,7 119,20 36,14 68,33 94,58 27,24 48,54 63,90 14,35 22,74 22,118z"/>
   <path class="fil6" d="M25737 2182c0,-31 -5,-57 -16,-77 -10,-20 -23,-36 -40,-49 -16,-12 -35,-20 -57,-25 -21,-5 -43,-8 -66,-8l-65 0 0 320 62 0c24,0 47,-3 68,-9 22,-5 42,-14 58,-26 17,-13 30,-29 40,-50 11,-20 16,-46 16,-76zm137 0c0,48 -9,89 -27,124 -17,35 -41,63 -70,86 -29,22 -62,39 -98,49 -37,11 -74,16 -112,16l-204 0 0 -547 198 0c39,0 77,5 115,14 37,9 71,24 100,44 29,21 53,49 71,84 18,35 27,78 27,130z"/>
   <path class="fil6" d="M26575 2181c0,-23 -4,-46 -12,-66 -8,-21 -18,-38 -32,-53 -14,-15 -30,-26 -50,-35 -19,-8 -40,-13 -63,-13 -23,0 -45,5 -64,13 -19,9 -35,20 -49,35 -14,15 -25,32 -32,53 -8,20 -11,43 -11,66 0,25 4,48 11,69 8,20 19,38 32,53 14,15 30,27 49,35 19,9 41,13 64,13 23,0 44,-4 63,-13 19,-8 36,-20 50,-35 13,-15 24,-33 32,-53 8,-21 12,-44 12,-69zm141 0c0,43 -8,83 -22,119 -15,36 -36,66 -63,92 -26,25 -58,45 -94,59 -37,14 -76,21 -119,21 -43,0 -82,-7 -119,-21 -36,-14 -67,-34 -94,-59 -27,-26 -47,-56 -62,-92 -15,-36 -23,-76 -23,-119 0,-44 8,-83 23,-118 15,-36 35,-66 62,-90 27,-25 58,-44 94,-58 37,-13 76,-20 119,-20 43,0 82,7 119,20 36,14 68,33 94,58 27,24 48,54 63,90 14,35 22,74 22,118z"/>
   <polygon class="fil7" points="26628,3604 26628,2763 26345,2763 "/>
   <path class="fil8" d="M19643 5152l577 0 0 -900 286 0c124,0 243,-14 358,-41l0 0c115,-27 216,-69 303,-128l0 0c88,-58 158,-135 210,-231l0 0c51,-95 77,-213 77,-352l0 0c0,-137 -24,-253 -72,-346l0 0c-49,-93 -115,-169 -199,-226l0 0c-85,-57 -184,-99 -297,-125l0 0c-114,-25 -236,-38 -366,-38l0 0 -877 0 0 2387zm577 -1922l253 0c51,0 101,3 150,10l0 0c48,7 91,20 130,41l0 0c38,20 68,48 91,84l0 0c22,36 33,82 33,138l0 0c0,56 -11,103 -33,140l0 0c-23,37 -54,67 -93,89l0 0c-39,23 -84,39 -133,48l0 0c-50,9 -101,13 -155,13l0 0 -243 0 0 -563z"/>
   <polygon class="fil9" points="26464,5152 27055,5153 26255,2763 25694,2762 "/>
   <polygon class="fil10" points="24905,5152 25478,5152 26248,2763 25755,2763 25675,2763 25652,2834 "/>
   <path class="fil11" d="M13015 5801l81 0c18,0 35,-2 51,-5 16,-4 29,-9 41,-16 11,-7 20,-16 26,-27 6,-11 9,-25 9,-42 0,-16 -3,-30 -10,-41 -6,-11 -15,-20 -26,-27 -11,-7 -24,-12 -39,-15 -16,-2 -33,-4 -51,-4l-82 0 0 177zm-77 -242l167 0c29,0 56,3 80,9 24,6 45,15 62,28 17,12 30,28 39,47 10,19 14,42 14,68 0,28 -5,51 -15,71 -10,19 -24,35 -41,47 -18,13 -39,22 -64,28 -24,6 -51,9 -79,9l-86 0 0 240 -77 0 0 -547z"/>
   <path class="fil11" d="M14359 5832c0,-30 -4,-58 -14,-85 -10,-26 -24,-50 -42,-70 -18,-20 -40,-36 -65,-47 -26,-12 -54,-17 -86,-17 -32,0 -60,5 -85,17 -26,11 -47,27 -65,47 -18,20 -32,44 -41,70 -10,27 -15,55 -15,85 0,30 5,59 15,85 9,27 23,50 41,70 18,20 40,35 65,47 25,11 53,17 85,17 31,0 60,-6 86,-17 25,-12 47,-27 65,-47 18,-20 32,-43 42,-70 10,-26 14,-55 14,-85zm83 0c0,42 -7,81 -22,116 -15,35 -35,65 -61,91 -25,25 -56,45 -91,59 -36,14 -74,21 -116,21 -42,0 -80,-7 -115,-21 -36,-14 -66,-34 -92,-59 -26,-26 -46,-56 -60,-91 -14,-35 -22,-74 -22,-116 0,-43 8,-82 22,-117 14,-35 34,-65 60,-91 26,-24 56,-44 92,-58 35,-14 73,-21 115,-21 42,0 80,7 116,21 35,14 66,34 91,58 26,26 46,56 61,91 15,35 22,74 22,117z"/>
   <path class="fil11" d="M15116 5798l88 0c18,0 35,-1 50,-4 16,-3 29,-8 41,-15 11,-7 20,-16 27,-27 7,-11 10,-25 10,-41 0,-17 -3,-31 -10,-42 -7,-11 -15,-20 -26,-26 -11,-7 -24,-12 -39,-15 -15,-2 -31,-4 -47,-4l-94 0 0 174zm0 308l-76 0 0 -547 175 0c26,0 51,3 75,8 23,6 44,15 62,26 18,12 32,28 42,47 10,19 15,43 15,71 0,40 -12,72 -37,97 -24,24 -56,40 -95,47l153 251 -93 0 -139 -243 -82 0 0 243z"/>
   <polygon class="fil11" points="16885,6106 16809,6106 16809,5626 16634,5626 16634,5559 17060,5559 17060,5626 16885,5626 "/>
   <path class="fil11" d="M18095 5832c0,-30 -5,-58 -15,-85 -10,-26 -23,-50 -42,-70 -18,-20 -39,-36 -65,-47 -25,-12 -54,-17 -86,-17 -31,0 -59,5 -85,17 -25,11 -47,27 -65,47 -18,20 -31,44 -41,70 -10,27 -15,55 -15,85 0,30 5,59 15,85 10,27 24,50 42,70 18,20 39,35 64,47 26,11 54,17 85,17 32,0 60,-6 86,-17 26,-12 47,-27 65,-47 19,-20 32,-43 42,-70 10,-26 15,-55 15,-85zm82 0c0,42 -7,81 -22,116 -14,35 -34,65 -60,91 -26,25 -57,45 -92,59 -35,14 -74,21 -116,21 -41,0 -80,-7 -115,-21 -35,-14 -66,-34 -91,-59 -26,-26 -46,-56 -61,-91 -14,-35 -21,-74 -21,-116 0,-43 7,-82 21,-117 15,-35 35,-65 61,-91 25,-24 56,-44 91,-58 35,-14 74,-21 115,-21 42,0 81,7 116,21 35,14 66,34 92,58 26,26 46,56 60,91 15,35 22,74 22,117z"/>
   <path class="fil11" d="M18852 6038l95 0c33,0 64,-4 92,-13 28,-10 52,-23 72,-41 21,-17 36,-39 48,-64 11,-26 17,-55 17,-88 0,-34 -6,-63 -17,-89 -12,-26 -27,-47 -48,-64 -20,-18 -44,-31 -72,-40 -28,-9 -59,-13 -92,-13l-95 0 0 412zm-77 -479l188 0c35,0 70,5 105,16 35,10 66,26 94,48 29,23 52,51 69,85 18,35 26,76 26,124 0,47 -8,88 -26,122 -17,34 -40,62 -69,85 -28,22 -59,39 -94,50 -35,11 -70,17 -105,17l-188 0 0 -547z"/>
   <path class="fil11" d="M20324 5832c0,-30 -5,-58 -14,-85 -10,-26 -24,-50 -42,-70 -18,-20 -40,-36 -65,-47 -26,-12 -54,-17 -86,-17 -32,0 -60,5 -85,17 -26,11 -48,27 -65,47 -18,20 -32,44 -42,70 -9,27 -14,55 -14,85 0,30 5,59 14,85 10,27 24,50 42,70 18,20 40,35 65,47 25,11 53,17 85,17 31,0 60,-6 85,-17 26,-12 48,-27 66,-47 18,-20 32,-43 42,-70 9,-26 14,-55 14,-85zm83 0c0,42 -8,81 -22,116 -15,35 -35,65 -61,91 -25,25 -56,45 -91,59 -36,14 -75,21 -116,21 -42,0 -80,-7 -116,-21 -35,-14 -65,-34 -91,-59 -26,-26 -46,-56 -60,-91 -15,-35 -22,-74 -22,-116 0,-43 7,-82 22,-117 14,-35 34,-65 60,-91 26,-24 56,-44 91,-58 36,-14 74,-21 116,-21 41,0 80,7 116,21 35,14 66,34 91,58 26,26 46,56 61,91 14,35 22,74 22,117z"/>
   <path class="fil11" d="M22160 5832c0,-30 -5,-58 -15,-85 -10,-26 -24,-50 -42,-70 -18,-20 -40,-36 -65,-47 -25,-12 -54,-17 -86,-17 -31,0 -60,5 -85,17 -26,11 -47,27 -65,47 -18,20 -31,44 -41,70 -10,27 -15,55 -15,85 0,30 5,59 15,85 10,27 23,50 41,70 18,20 40,35 65,47 25,11 54,17 85,17 31,0 60,-6 86,-17 25,-12 47,-27 65,-47 18,-20 32,-43 42,-70 10,-26 15,-55 15,-85zm82 0c0,42 -7,81 -22,116 -14,35 -35,65 -60,91 -26,25 -57,45 -92,59 -36,14 -74,21 -116,21 -42,0 -80,-7 -115,-21 -36,-14 -66,-34 -92,-59 -25,-26 -45,-56 -60,-91 -14,-35 -21,-74 -21,-116 0,-43 7,-82 21,-117 15,-35 35,-65 60,-91 26,-24 56,-44 92,-58 35,-14 73,-21 115,-21 42,0 80,7 116,21 35,14 66,34 92,58 25,26 46,56 60,91 15,35 22,74 22,117z"/>
   <path class="fil11" d="M23603 5801l81 0c19,0 36,-2 51,-5 16,-4 30,-9 41,-16 11,-7 20,-16 26,-27 6,-11 9,-25 9,-42 0,-16 -3,-30 -9,-41 -7,-11 -15,-20 -27,-27 -11,-7 -24,-12 -39,-15 -16,-2 -32,-4 -50,-4l-83 0 0 177zm-76 -242l166 0c30,0 56,3 81,9 24,6 44,15 61,28 17,12 30,28 40,47 9,19 14,42 14,68 0,28 -6,51 -16,71 -10,19 -23,35 -41,47 -18,13 -39,22 -63,28 -25,6 -51,9 -80,9l-86 0 0 240 -76 0 0 -547z"/>
   <path class="fil11" d="M24584 5904l204 0 -102 -256 -102 256zm-82 202l-85 0 237 -547 69 0 235 547 -87 0 -55 -135 -259 0 -55 135z"/>
   <path class="fil11" d="M25598 5798l88 0c18,0 35,-1 50,-4 16,-3 29,-8 41,-15 11,-7 20,-16 27,-27 7,-11 10,-25 10,-41 0,-17 -3,-31 -10,-42 -7,-11 -16,-20 -27,-26 -11,-7 -24,-12 -39,-15 -14,-2 -30,-4 -47,-4l-93 0 0 174zm0 308l-76 0 0 -547 175 0c26,0 51,3 75,8 23,6 44,15 62,26 17,12 31,28 42,47 10,19 15,43 15,71 0,40 -12,72 -37,97 -25,24 -56,40 -95,47l152 251 -92 0 -139 -243 -82 0 0 243z"/>
   <path class="fil11" d="M26730 5516l-59 0 76 -111 88 0 -105 111zm-137 388l205 0 -102 -256 -103 256zm-82 202l-84 0 236 -547 70 0 234 547 -86 0 -56 -135 -259 0 -55 135z"/>
   <polygon class="fil12" points="19012,1881 12938,1881 12938,5167 19012,5167 "/>
   <polygon class="fil11" points="15111,4448 12938,2426 12938,5167 14875,5167 "/>
   <polygon class="fil13" points="15233,5167 15882,5167 15597,4901 "/>
   <polygon class="fil14" points="15605,3352 14422,3349 15381,4043 15013,5167 15969,4470 16924,5167 16556,4043 17515,3349 16332,3352 15969,2226 "/>
   <polygon class="fil11" points="15897,1881 19012,1881 19012,4466 "/>
   <g>
    <g>
     <path class="fil15" d="M5756 2511c-14,-19 -31,-34 -53,-46 -21,-12 -47,-17 -78,-17 -15,0 -31,2 -47,7 -17,5 -31,12 -44,22 -14,10 -24,22 -32,37 -8,15 -12,33 -12,53 0,20 3,37 11,50 8,13 18,25 31,34 13,9 28,17 44,23 16,6 33,12 51,18 22,7 45,15 67,23 22,8 43,19 61,33 17,13 32,30 43,51 12,21 17,47 17,78 0,32 -6,60 -18,83 -12,23 -28,42 -47,57 -19,15 -41,26 -66,33 -25,7 -50,11 -75,11 -19,0 -38,-2 -57,-6 -20,-4 -38,-10 -55,-18 -18,-8 -34,-17 -49,-29 -15,-12 -28,-26 -39,-42l55 -41c14,23 34,42 58,57 25,15 54,23 88,23 16,0 32,-3 49,-8 17,-5 32,-13 46,-23 13,-11 24,-23 33,-39 8,-15 13,-33 13,-53 0,-22 -5,-41 -13,-55 -9,-15 -20,-27 -35,-37 -14,-10 -31,-18 -49,-25 -19,-6 -38,-13 -59,-19 -20,-7 -41,-15 -61,-23 -21,-8 -39,-19 -55,-33 -16,-13 -29,-30 -39,-50 -10,-19 -15,-44 -15,-72 0,-31 6,-57 18,-79 13,-22 29,-41 48,-55 20,-14 42,-25 66,-31 24,-7 47,-10 71,-10 43,0 80,7 110,23 31,15 54,33 69,54l-51 41z"/>
     <path class="fil15" d="M6271 2802c-1,-39 -14,-72 -38,-98 -23,-26 -57,-39 -101,-39 -20,0 -39,3 -56,11 -18,7 -33,18 -46,30 -13,13 -24,28 -31,44 -8,17 -13,34 -14,52l286 0zm62 20l0 13c0,5 0,10 -1,15l-348 0c1,21 5,41 13,60 7,18 18,34 32,48 14,14 30,25 49,33 18,8 38,12 60,12 31,0 59,-7 82,-22 23,-15 40,-31 52,-51l46 36c-25,32 -53,55 -83,69 -30,13 -63,20 -97,20 -32,0 -60,-5 -87,-16 -27,-11 -49,-27 -69,-47 -19,-19 -34,-43 -45,-70 -11,-27 -17,-56 -17,-88 0,-31 6,-61 17,-88 10,-27 25,-50 44,-70 20,-19 42,-35 68,-46 25,-11 53,-16 83,-16 33,0 62,5 87,16 25,11 46,26 63,45 17,19 30,41 38,66 9,25 13,52 13,81z"/>
     <path class="fil15" d="M6767 2720c-10,-16 -25,-29 -45,-40 -19,-10 -40,-15 -63,-15 -24,0 -47,4 -66,13 -20,8 -37,20 -51,36 -14,15 -25,33 -32,54 -8,20 -12,42 -12,66 0,24 4,46 12,67 7,20 18,38 31,53 14,15 31,27 51,36 19,9 42,13 66,13 27,0 50,-5 68,-15 19,-10 34,-24 46,-40l46 34c-18,23 -40,40 -66,53 -26,14 -57,20 -94,20 -34,0 -65,-5 -92,-16 -28,-12 -51,-27 -71,-47 -19,-19 -34,-43 -45,-70 -11,-27 -16,-56 -16,-88 0,-31 5,-61 16,-88 11,-27 26,-50 45,-70 20,-19 43,-35 71,-46 27,-11 58,-16 92,-16 28,0 57,6 86,18 29,12 52,30 70,54l-47 34z"/>
     <path class="fil15" d="M6912 2673c0,-18 -1,-34 -3,-49l59 0c1,12 2,24 3,38 0,14 0,25 0,34l2 0c12,-24 30,-44 54,-60 24,-15 51,-22 81,-22 8,0 15,0 21,0 6,1 13,2 19,4l-8 58c-3,-1 -9,-2 -18,-3 -8,-1 -17,-2 -25,-2 -16,0 -32,3 -47,9 -15,6 -28,15 -39,28 -11,13 -20,29 -27,49 -6,20 -10,44 -10,72l0 215 -61 0 0 -327c0,-12 0,-26 -1,-44z"/>
     <path class="fil15" d="M7557 2802c-2,-39 -15,-72 -39,-98 -23,-26 -57,-39 -101,-39 -20,0 -39,3 -56,11 -17,7 -33,18 -46,30 -13,13 -23,28 -31,44 -8,17 -12,34 -14,52l287 0zm62 20l0 13c0,5 -1,10 -1,15l-349 0c1,21 5,41 13,60 8,18 19,34 32,48 14,14 30,25 49,33 18,8 38,12 60,12 32,0 59,-7 82,-22 23,-15 41,-31 53,-51l45 36c-25,32 -53,55 -83,69 -30,13 -62,20 -97,20 -31,0 -60,-5 -87,-16 -26,-11 -49,-27 -68,-47 -20,-19 -35,-43 -46,-70 -11,-27 -16,-56 -16,-88 0,-31 5,-61 16,-88 11,-27 26,-50 45,-70 19,-19 41,-35 67,-46 26,-11 54,-16 83,-16 33,0 62,5 88,16 25,11 46,26 62,45 17,19 30,41 38,66 9,25 14,52 14,81z"/>
     <path class="fil15" d="M7939 2675l-119 0 0 246c0,15 2,28 5,38 3,10 7,18 13,24 6,6 12,9 20,12 8,2 16,3 25,3 9,0 18,-1 27,-4 9,-2 18,-6 26,-10l3 53c-11,4 -22,8 -34,10 -11,2 -24,3 -38,3 -11,0 -23,-2 -36,-5 -12,-3 -24,-8 -35,-17 -11,-8 -19,-20 -26,-34 -7,-14 -11,-33 -11,-56l0 -263 -87 0 0 -51 87 0 0 -118 61 0 0 118 119 0 0 51z"/>
     <path class="fil15" d="M8281 2834c-25,0 -51,1 -76,4 -25,2 -48,6 -69,12 -21,6 -38,15 -51,27 -13,12 -19,28 -19,48 0,15 2,28 8,38 6,10 13,18 23,24 9,7 20,11 32,14 11,3 23,4 35,4 22,0 41,-4 58,-11 16,-8 30,-18 42,-31 11,-13 20,-27 26,-44 6,-17 9,-35 9,-53l0 -32 -18 0zm18 -61c0,-37 -10,-64 -29,-82 -19,-17 -47,-26 -83,-26 -26,0 -49,4 -70,13 -22,9 -40,21 -55,36l-34 -40c17,-18 40,-32 68,-43 29,-12 61,-17 97,-17 23,0 44,3 64,9 19,6 37,16 52,28 15,13 26,29 35,48 8,19 12,41 12,67l0 184c0,16 1,33 2,50 1,18 3,32 6,44l-55 0c-2,-10 -4,-21 -5,-33 -1,-12 -2,-23 -2,-35l-1 0c-19,28 -41,48 -65,61 -25,12 -54,18 -88,18 -16,0 -33,-2 -50,-7 -17,-4 -32,-11 -46,-22 -14,-10 -26,-23 -35,-39 -10,-17 -14,-36 -14,-60 0,-32 8,-58 24,-77 17,-19 39,-33 66,-42 28,-9 59,-15 95,-18 36,-3 73,-4 111,-4l0 -13z"/>
     <path class="fil15" d="M8512 2673c0,-18 -1,-34 -2,-49l58 0c1,12 2,24 3,38 0,14 1,25 1,34l2 0c11,-24 29,-44 53,-60 24,-15 51,-22 81,-22 8,0 15,0 21,0 6,1 13,2 19,4l-8 58c-3,-1 -9,-2 -18,-3 -8,-1 -16,-2 -25,-2 -16,0 -31,3 -46,9 -15,6 -28,15 -39,28 -11,13 -20,29 -27,49 -7,20 -11,44 -11,72l0 215 -61 0 0 -327c0,-12 0,-26 -1,-44z"/>
     <path class="fil15" d="M8898 3044l-61 0 0 -420 61 0 0 420zm13 -581c0,12 -5,23 -13,31 -10,8 -19,12 -30,12 -11,0 -21,-4 -30,-12 -9,-8 -13,-19 -13,-31 0,-13 4,-23 13,-31 9,-8 19,-12 30,-12 11,0 20,4 30,12 8,8 13,18 13,31z"/>
     <path class="fil15" d="M9308 2834c-25,0 -51,1 -76,4 -26,2 -49,6 -69,12 -21,6 -38,15 -51,27 -13,12 -20,28 -20,48 0,15 3,28 9,38 5,10 13,18 23,24 9,7 20,11 32,14 11,3 23,4 35,4 22,0 41,-4 57,-11 17,-8 31,-18 43,-31 11,-13 20,-27 26,-44 6,-17 9,-35 9,-53l0 -32 -18 0zm18 -61c0,-37 -10,-64 -29,-82 -19,-17 -47,-26 -84,-26 -25,0 -48,4 -70,13 -21,9 -39,21 -54,36l-34 -40c17,-18 40,-32 68,-43 29,-12 61,-17 97,-17 22,0 44,3 63,9 20,6 38,16 52,28 15,13 27,29 35,48 9,19 13,41 13,67l0 184c0,16 1,33 2,50 1,18 3,32 5,44l-55 0c-1,-10 -3,-21 -4,-33 -1,-12 -2,-23 -2,-35l-2 0c-19,28 -40,48 -65,61 -24,12 -53,18 -87,18 -16,0 -33,-2 -50,-7 -17,-4 -33,-11 -47,-22 -14,-10 -25,-23 -35,-39 -9,-17 -14,-36 -14,-60 0,-32 9,-58 25,-77 17,-19 39,-33 66,-42 28,-9 59,-15 95,-18 35,-3 72,-4 111,-4l0 -13z"/>
     <path class="fil15" d="M9799 2834c0,24 3,46 10,66 8,21 18,39 31,54 14,15 30,27 50,36 20,9 42,13 67,13 24,0 45,-4 65,-13 20,-9 37,-20 51,-35 15,-15 26,-33 34,-54 8,-20 12,-43 12,-67 0,-24 -4,-46 -12,-67 -8,-20 -19,-38 -34,-53 -14,-16 -31,-28 -51,-36 -20,-9 -41,-13 -65,-13 -25,0 -47,4 -67,13 -20,9 -36,21 -50,37 -13,15 -23,33 -31,53 -7,21 -10,43 -10,66zm311 140c-18,26 -41,47 -70,60 -29,14 -58,21 -89,21 -33,0 -62,-6 -89,-17 -27,-11 -49,-27 -68,-47 -19,-19 -34,-43 -44,-70 -11,-26 -16,-56 -16,-87 0,-31 5,-60 16,-87 10,-27 25,-50 44,-70 19,-19 41,-35 68,-46 27,-12 56,-17 89,-17 31,0 60,7 89,21 29,14 52,34 70,62l2 0 0 -331 61 0 0 678 -61 0 0 -70 -2 0z"/>
     <path class="fil15" d="M10657 2802c-2,-39 -15,-72 -39,-98 -23,-26 -57,-39 -100,-39 -21,0 -40,3 -57,11 -17,7 -33,18 -46,30 -13,13 -23,28 -31,44 -8,17 -12,34 -14,52l287 0zm62 20l0 13c0,5 -1,10 -1,15l-349 0c1,21 5,41 13,60 8,18 19,34 32,48 14,14 30,25 49,33 18,8 38,12 60,12 32,0 59,-7 82,-22 23,-15 41,-31 53,-51l45 36c-25,32 -53,55 -83,69 -30,13 -62,20 -97,20 -31,0 -60,-5 -87,-16 -26,-11 -49,-27 -68,-47 -20,-19 -35,-43 -46,-70 -11,-27 -16,-56 -16,-88 0,-31 5,-61 16,-88 11,-27 26,-50 45,-70 19,-19 41,-35 67,-46 26,-11 54,-16 84,-16 32,0 62,5 87,16 25,11 46,26 62,45 17,19 30,41 39,66 8,25 13,52 13,81z"/>
    </g>
    <g>
     <polygon class="fil15" points="4648,4121 4651,3672 4649,3672 4483,4121 4376,4121 4215,3672 4212,3672 4216,4121 4072,4121 4072,3486 4290,3486 4434,3893 4438,3893 4577,3486 4798,3486 4798,4121 "/>
     <path class="fil15" d="M5228 3847c0,-24 -7,-44 -22,-60 -14,-17 -36,-25 -66,-25 -14,0 -27,2 -39,6 -12,5 -22,11 -31,19 -9,7 -17,17 -22,27 -5,11 -8,21 -9,33l189 0zm136 56l0 18c0,6 0,12 -1,17l-324 0c1,13 5,24 11,34 7,11 15,19 24,27 10,7 21,13 34,17 12,5 25,7 38,7 23,0 43,-5 59,-13 16,-9 29,-20 40,-34l102 65c-21,30 -49,54 -83,70 -35,17 -74,25 -120,25 -33,0 -65,-6 -95,-16 -30,-10 -56,-26 -79,-46 -22,-20 -40,-44 -53,-74 -13,-29 -19,-63 -19,-100 0,-37 6,-70 19,-99 13,-30 30,-55 51,-76 22,-20 47,-36 76,-48 30,-11 61,-17 96,-17 32,0 63,6 90,17 28,11 51,27 71,48 20,21 35,46 46,76 11,30 17,64 17,102z"/>
     <path class="fil15" d="M5457 3674l147 0 0 447 -147 0 0 -447zm158 -142c0,11 -2,22 -7,32 -4,9 -10,18 -17,25 -8,7 -17,13 -27,17 -11,4 -22,7 -33,7 -24,0 -44,-8 -60,-24 -16,-16 -24,-35 -24,-57 0,-11 2,-21 6,-31 4,-10 10,-19 18,-26 8,-7 16,-13 27,-17 10,-5 21,-7 33,-7 11,0 22,2 33,6 10,4 19,10 27,17 7,8 13,16 17,26 5,10 7,20 7,32z"/>
     <path class="fil15" d="M6053 3896c0,-14 -2,-28 -7,-42 -5,-14 -12,-26 -21,-36 -9,-11 -20,-19 -33,-26 -13,-7 -28,-10 -46,-10 -17,0 -32,3 -45,10 -14,7 -24,15 -33,26 -9,10 -15,22 -20,36 -4,14 -7,28 -7,42 0,15 3,29 7,42 5,14 11,26 20,38 9,11 20,19 34,26 13,7 28,10 45,10 18,0 33,-3 46,-10 13,-7 24,-15 33,-26 9,-12 16,-24 21,-38 4,-13 6,-27 6,-42zm142 0c0,37 -7,70 -20,99 -13,30 -31,55 -54,76 -22,20 -49,36 -79,48 -29,11 -61,17 -96,17 -33,0 -65,-6 -95,-17 -30,-12 -57,-28 -79,-48 -23,-21 -40,-46 -54,-76 -13,-29 -19,-62 -19,-99 0,-36 6,-69 19,-99 14,-29 31,-54 54,-74 22,-20 49,-36 79,-47 30,-11 62,-16 95,-16 35,0 67,5 96,16 30,11 57,27 79,47 23,20 41,45 54,74 13,30 20,63 20,99z"/>
     <path class="fil15" d="M6781 3656l-81 218 160 0 -79 -218zm171 465l-50 -124 -246 0 -46 124 -167 0 266 -635 149 0 264 635 -170 0z"/>
     <path class="fil15" d="M7738 4121l0 -244c0,-12 -1,-24 -3,-36 -2,-12 -5,-22 -10,-30 -4,-8 -11,-15 -19,-20 -8,-5 -19,-8 -32,-8 -12,0 -23,3 -33,8 -9,6 -17,13 -23,22 -6,9 -11,19 -14,31 -3,11 -4,23 -4,36l0 241 -148 0 0 -254c0,-26 -5,-47 -15,-61 -10,-15 -26,-23 -48,-23 -24,0 -42,9 -55,28 -12,18 -19,41 -19,68l0 242 -148 0 0 -447 143 0 0 62 2 0c5,-9 12,-18 20,-27 8,-9 18,-17 29,-24 11,-7 24,-13 38,-17 14,-4 30,-6 46,-6 33,0 60,6 82,20 23,13 40,32 53,56 15,-23 34,-42 57,-55 24,-14 52,-21 86,-21 30,0 56,5 76,16 21,12 38,26 50,44 13,17 22,37 28,59 5,22 8,43 8,64l0 276 -147 0z"/>
     <path class="fil15" d="M8353 3896c0,-14 -3,-28 -7,-42 -4,-14 -11,-26 -20,-36 -9,-11 -20,-19 -33,-26 -14,-7 -29,-10 -46,-10 -17,0 -32,3 -45,10 -13,7 -25,15 -34,26 -9,11 -16,23 -21,37 -5,14 -8,28 -8,42 0,14 3,28 8,42 5,14 12,26 21,37 9,11 21,19 34,26 13,7 28,10 45,10 17,0 32,-3 46,-10 13,-7 24,-15 33,-26 9,-11 16,-23 20,-37 4,-14 7,-28 7,-43zm142 0c0,31 -5,61 -15,90 -9,29 -23,54 -42,76 -18,22 -40,39 -66,52 -27,13 -57,20 -90,20 -30,0 -58,-6 -85,-18 -27,-13 -47,-30 -61,-53l-2 0 0 58 -136 0 0 -678 147 0 0 279 2 0c13,-15 30,-29 53,-41 23,-13 51,-19 84,-19 32,0 61,6 87,19 26,12 48,29 67,51 18,21 32,46 42,75 10,28 15,58 15,89z"/>
     <path class="fil15" d="M8590 3674l147 0 0 447 -147 0 0 -447zm158 -142c0,11 -3,22 -7,32 -5,9 -11,18 -18,25 -8,7 -17,13 -27,17 -10,4 -21,7 -33,7 -24,0 -44,-8 -60,-24 -16,-16 -24,-35 -24,-57 0,-11 2,-21 6,-31 4,-10 10,-19 18,-26 8,-7 17,-13 27,-17 10,-5 21,-7 33,-7 12,0 23,2 33,6 10,4 19,10 27,17 7,8 13,16 18,26 4,10 7,20 7,32z"/>
     <path class="fil15" d="M9161 3847c0,-24 -7,-44 -22,-60 -14,-17 -36,-25 -66,-25 -14,0 -27,2 -39,6 -12,5 -22,11 -31,19 -9,7 -17,17 -22,27 -5,11 -8,21 -9,33l189 0zm136 56l0 18c0,6 0,12 -1,17l-324 0c1,13 5,24 11,34 7,11 15,19 24,27 10,7 21,13 34,17 12,5 25,7 38,7 23,0 43,-5 59,-13 16,-9 29,-20 40,-34l102 65c-21,30 -49,54 -83,70 -35,17 -75,25 -120,25 -33,0 -65,-6 -95,-16 -30,-10 -56,-26 -79,-46 -22,-20 -40,-44 -53,-74 -13,-29 -19,-63 -19,-100 0,-37 6,-70 19,-99 12,-30 30,-55 51,-76 22,-20 47,-36 76,-48 30,-11 61,-17 95,-17 33,0 64,6 91,17 28,11 51,27 71,48 20,21 35,46 46,76 11,30 17,64 17,102z"/>
     <path class="fil15" d="M9682 4121l0 -244c0,-12 -1,-24 -3,-36 -2,-11 -6,-21 -10,-30 -5,-8 -12,-15 -21,-20 -8,-5 -19,-8 -32,-8 -14,0 -25,3 -35,8 -10,5 -18,12 -25,21 -6,9 -11,19 -15,31 -3,11 -4,24 -4,36l0 242 -149 0 0 -447 143 0 0 62 2 0c5,-9 12,-19 21,-28 9,-9 19,-17 31,-24 11,-6 24,-12 38,-16 13,-4 28,-6 44,-6 30,0 55,5 76,16 21,11 38,25 51,42 13,17 22,36 28,59 5,22 8,44 8,66l0 276 -148 0z"/>
     <path class="fil15" d="M10101 3784l0 171c0,21 4,37 12,47 8,11 23,16 44,16 7,0 15,0 23,-2 8,-1 14,-3 20,-5l2 108c-11,3 -23,6 -39,9 -16,3 -31,4 -47,4 -30,0 -55,-4 -75,-11 -20,-8 -37,-18 -49,-32 -12,-15 -21,-31 -26,-51 -6,-19 -8,-41 -8,-65l0 -189 -72 0 0 -110 71 0 0 -117 144 0 0 117 105 0 0 110 -105 0z"/>
     <path class="fil15" d="M10583 3847c0,-24 -7,-44 -22,-60 -15,-17 -37,-25 -66,-25 -14,0 -27,2 -39,6 -12,5 -23,11 -32,19 -9,7 -16,17 -21,27 -6,11 -9,21 -9,33l189 0zm136 56l0 18c0,6 -1,12 -1,17l-324 0c1,13 5,24 11,34 6,11 14,19 24,27 10,7 21,13 33,17 13,5 25,7 38,7 24,0 44,-5 60,-13 16,-9 29,-20 39,-34l103 65c-21,30 -49,54 -83,70 -35,17 -75,25 -120,25 -34,0 -66,-6 -95,-16 -30,-10 -56,-26 -79,-46 -22,-20 -40,-44 -53,-74 -13,-29 -19,-63 -19,-100 0,-37 6,-70 19,-99 12,-30 29,-55 51,-76 21,-20 47,-36 76,-48 29,-11 61,-17 95,-17 33,0 63,6 91,17 27,11 51,27 71,48 19,21 35,46 46,76 11,30 17,64 17,102z"/>
    </g>
    <g>
     <path class="fil15" d="M2976 4924c0,-24 -8,-44 -22,-60 -15,-17 -37,-25 -66,-25 -15,0 -28,2 -40,6 -12,5 -22,11 -31,19 -9,7 -16,17 -22,27 -5,11 -8,21 -9,33l190 0zm135 56l0 18c0,6 0,12 -1,17l-324 0c1,13 5,24 11,35 7,10 15,19 25,26 10,7 21,13 33,17 12,5 25,7 38,7 23,0 43,-5 59,-13 16,-9 30,-20 40,-34l102 65c-21,30 -48,54 -83,70 -34,17 -74,25 -120,25 -33,0 -65,-5 -95,-16 -30,-10 -56,-26 -78,-46 -23,-20 -41,-44 -53,-74 -13,-29 -20,-63 -20,-100 0,-37 7,-70 19,-99 13,-30 30,-55 51,-76 22,-20 47,-36 77,-48 29,-11 61,-17 95,-17 33,0 63,6 90,17 28,11 52,27 71,48 20,21 35,46 47,76 11,30 16,64 16,102z"/>
     <path class="fil15" d="M3771 4728c-13,-17 -31,-30 -52,-40 -21,-10 -41,-15 -61,-15 -10,0 -21,1 -31,3 -11,2 -20,5 -28,10 -9,6 -16,12 -22,20 -5,8 -8,19 -8,31 0,11 2,20 7,27 4,7 11,14 19,19 9,5 19,10 31,15 12,4 26,9 41,14 21,7 44,15 67,23 23,9 45,21 64,35 19,14 35,32 47,53 13,22 19,48 19,80 0,36 -7,68 -20,95 -13,26 -32,48 -54,65 -23,18 -49,31 -78,39 -30,8 -60,13 -91,13 -46,0 -90,-8 -132,-24 -43,-16 -78,-39 -106,-68l101 -102c15,19 36,35 61,48 26,13 51,19 76,19 11,0 22,-1 33,-3 11,-3 20,-7 28,-12 8,-6 15,-13 20,-22 4,-9 7,-19 7,-32 0,-12 -3,-22 -9,-31 -6,-8 -15,-16 -26,-22 -11,-7 -24,-14 -41,-19 -16,-6 -35,-12 -56,-19 -20,-6 -40,-14 -60,-23 -19,-9 -37,-21 -52,-35 -15,-14 -27,-31 -37,-51 -9,-20 -13,-44 -13,-73 0,-35 7,-65 21,-91 14,-25 33,-45 57,-61 23,-17 49,-28 79,-36 29,-7 59,-11 88,-11 36,0 73,6 110,20 38,13 71,32 99,58l-98 103z"/>
     <path class="fil15" d="M4252 5198l0 -61 -2 0c-5,10 -12,19 -21,28 -9,9 -19,17 -31,24 -11,6 -24,12 -38,16 -14,4 -29,6 -45,6 -29,0 -55,-5 -75,-16 -21,-11 -38,-25 -51,-42 -13,-17 -22,-36 -27,-58 -6,-22 -9,-44 -9,-67l0 -276 148 0 0 242c0,12 1,24 3,36 2,11 5,21 10,30 5,9 12,16 20,21 9,5 20,8 34,8 25,0 45,-10 58,-29 14,-19 21,-41 21,-67l0 -241 147 0 0 446 -142 0z"/>
     <path class="fil15" d="M4772 4883c-12,-11 -26,-20 -43,-28 -16,-8 -33,-12 -51,-12 -14,0 -26,3 -38,8 -12,6 -17,15 -17,28 0,13 6,22 19,27 13,5 34,11 62,18 17,3 34,9 51,15 17,7 32,15 46,26 14,11 25,24 33,40 9,15 13,34 13,55 0,28 -6,52 -17,72 -11,19 -26,35 -45,47 -18,12 -38,20 -61,26 -23,5 -45,8 -68,8 -37,0 -72,-6 -107,-18 -35,-11 -65,-29 -88,-51l83 -87c13,14 29,26 48,36 19,9 40,14 61,14 12,0 24,-3 36,-9 11,-5 17,-15 17,-30 0,-13 -7,-24 -21,-30 -15,-7 -37,-14 -68,-21 -15,-3 -31,-8 -46,-14 -16,-6 -30,-14 -42,-24 -13,-11 -23,-23 -30,-38 -8,-15 -12,-33 -12,-54 0,-27 6,-50 17,-69 11,-18 26,-34 44,-46 18,-12 38,-21 60,-26 22,-6 43,-9 65,-9 33,0 66,5 98,16 32,10 59,26 81,47l-80 83z"/>
     <path class="fil15" d="M5092 4861l0 171c0,21 4,37 12,47 8,11 23,16 44,16 7,0 14,0 23,-2 8,-1 14,-3 20,-5l2 108c-11,3 -23,7 -39,9 -16,3 -31,4 -47,4 -30,0 -55,-3 -75,-11 -21,-7 -37,-18 -49,-32 -12,-14 -21,-31 -27,-51 -5,-19 -8,-41 -8,-65l0 -189 -71 0 0 -110 70 0 0 -117 145 0 0 117 105 0 0 110 -105 0z"/>
     <path class="fil15" d="M5574 4924c0,-24 -7,-44 -22,-60 -15,-17 -37,-25 -66,-25 -14,0 -28,2 -39,6 -12,5 -23,11 -32,19 -9,7 -16,17 -21,27 -6,11 -9,21 -9,33l189 0zm135 56l0 18c0,6 0,12 0,17l-324 0c1,13 4,24 11,35 6,10 14,19 24,26 10,7 21,13 33,17 12,5 25,7 38,7 24,0 43,-5 60,-13 16,-9 29,-20 39,-34l102 65c-21,30 -48,54 -83,70 -34,17 -74,25 -119,25 -34,0 -66,-5 -96,-16 -30,-10 -56,-26 -78,-46 -22,-20 -40,-44 -53,-74 -13,-29 -19,-63 -19,-100 0,-37 6,-70 19,-99 12,-30 29,-55 51,-76 21,-20 47,-36 76,-48 29,-11 61,-17 95,-17 33,0 63,6 91,17 27,11 51,27 71,48 19,21 35,46 46,76 11,30 16,64 16,102z"/>
     <path class="fil15" d="M6095 5198l0 -244c0,-12 -2,-24 -4,-36 -2,-11 -5,-21 -10,-30 -5,-8 -11,-15 -20,-20 -9,-5 -20,-8 -33,-8 -13,0 -25,3 -34,8 -10,5 -19,12 -25,21 -7,9 -12,19 -15,31 -3,11 -5,24 -5,36l0 242 -148 0 0 -446 143 0 0 61 2 0c5,-9 12,-19 21,-28 8,-9 18,-17 30,-24 12,-6 25,-12 38,-16 14,-4 29,-6 44,-6 30,0 56,5 77,16 21,11 37,25 50,42 13,17 22,37 28,59 6,22 9,44 9,66l0 276 -148 0z"/>
     <path class="fil15" d="M6514 4861l0 171c0,21 4,37 12,47 8,11 22,16 43,16 7,0 15,0 23,-2 8,-1 15,-3 20,-5l2 108c-10,3 -23,7 -38,9 -16,3 -32,4 -47,4 -30,0 -55,-3 -75,-11 -21,-7 -37,-18 -49,-32 -13,-14 -21,-31 -27,-51 -5,-19 -8,-41 -8,-65l0 -189 -72 0 0 -110 71 0 0 -117 145 0 0 117 105 0 0 110 -105 0z"/>
     <path class="fil15" d="M6952 5004l-19 0c-16,0 -33,0 -49,2 -17,1 -31,4 -44,9 -13,4 -24,10 -32,18 -8,8 -12,19 -12,32 0,8 1,15 5,21 4,6 9,11 15,15 6,3 13,6 21,7 8,2 15,2 22,2 30,0 53,-8 69,-24 16,-17 24,-39 24,-67l0 -15zm-270 -192c26,-25 57,-43 92,-56 35,-13 70,-19 107,-19 38,0 69,5 95,14 26,9 47,24 64,43 16,20 28,44 35,74 8,29 11,65 11,105l0 225 -134 0 0 -47 -3 0c-11,18 -29,33 -52,43 -23,10 -48,15 -75,15 -18,0 -36,-2 -55,-7 -19,-5 -37,-13 -53,-23 -16,-11 -29,-25 -39,-43 -10,-18 -15,-40 -15,-67 0,-32 9,-58 27,-78 17,-20 40,-35 68,-46 27,-10 58,-18 93,-21 34,-4 67,-6 99,-6l0 -7c0,-22 -8,-38 -23,-49 -16,-10 -35,-15 -58,-15 -21,0 -41,4 -60,13 -20,9 -36,20 -50,32l-74 -80z"/>
     <path class="fil15" d="M7552 4973c0,-14 -2,-28 -7,-42 -4,-14 -11,-26 -20,-36 -9,-11 -20,-19 -33,-26 -13,-7 -28,-10 -46,-10 -17,0 -31,3 -45,10 -13,7 -24,15 -33,26 -10,11 -17,23 -22,37 -5,14 -8,28 -8,42 0,14 3,29 8,42 5,14 12,26 22,37 9,11 20,20 33,26 14,7 28,10 45,10 18,0 33,-3 46,-10 13,-6 24,-15 33,-26 9,-11 16,-23 20,-37 5,-14 7,-28 7,-43zm142 0c0,31 -5,61 -14,90 -10,29 -24,54 -42,76 -18,22 -41,39 -67,52 -26,13 -56,20 -90,20 -30,0 -58,-6 -85,-18 -26,-13 -47,-30 -61,-53l-2 0 0 58 -135 0 0 -678 147 0 0 279 2 0c12,-15 30,-29 53,-41 22,-13 50,-19 83,-19 32,0 61,6 88,19 26,12 48,29 66,51 18,22 32,47 42,75 10,28 15,58 15,89z"/>
     <path class="fil15" d="M7789 4752l147 0 0 446 -147 0 0 -446zm158 -143c0,11 -2,22 -7,32 -4,9 -10,18 -18,25 -7,7 -16,13 -27,17 -10,4 -21,7 -32,7 -24,0 -44,-8 -60,-24 -17,-16 -25,-35 -25,-57 0,-11 2,-21 7,-31 4,-10 10,-19 18,-26 7,-7 16,-13 26,-17 11,-5 22,-7 34,-7 11,0 22,2 32,6 11,5 20,10 27,17 8,8 14,16 18,26 5,10 7,20 7,32z"/>
     <polygon class="fil15" points="8055,4520 8205,4520 8205,5198 8055,5198 "/>
     <path class="fil15" d="M8322 4752l147 0 0 446 -147 0 0 -446zm158 -143c0,11 -2,22 -7,32 -4,9 -10,18 -18,25 -7,7 -16,13 -26,17 -11,4 -22,7 -33,7 -24,0 -44,-8 -60,-24 -16,-16 -25,-35 -25,-57 0,-11 3,-21 7,-31 4,-10 10,-19 18,-26 7,-7 16,-13 27,-17 10,-5 21,-7 33,-7 11,0 22,2 33,6 10,5 19,10 26,17 8,8 14,16 18,26 5,10 7,20 7,32z"/>
     <path class="fil15" d="M8919 4974c0,-14 -2,-28 -8,-42 -5,-14 -12,-26 -21,-37 -9,-11 -21,-19 -34,-26 -13,-7 -28,-10 -45,-10 -17,0 -32,3 -45,10 -14,7 -25,15 -34,26 -9,10 -15,22 -20,36 -4,14 -7,28 -7,42 0,15 3,29 7,43 5,14 11,26 20,37 9,11 20,20 34,26 13,7 28,10 45,10 17,0 32,-3 45,-10 13,-6 25,-15 34,-26 9,-11 16,-23 21,-37 6,-13 8,-28 8,-42zm5 224l0 -58 -1 0c-15,23 -35,40 -62,53 -26,12 -55,18 -85,18 -33,0 -63,-7 -89,-20 -27,-13 -49,-30 -67,-52 -19,-22 -32,-47 -42,-76 -10,-29 -14,-59 -14,-90 0,-31 5,-61 14,-89 10,-29 24,-53 43,-75 18,-22 40,-39 66,-51 26,-13 55,-19 88,-19 32,0 60,6 83,19 23,12 40,26 53,41l2 0 0 -279 147 0 0 678 -136 0z"/>
     <path class="fil15" d="M9441 5004l-19 0c-16,0 -33,0 -49,2 -17,1 -31,4 -44,9 -13,4 -24,10 -32,18 -8,8 -13,19 -13,32 0,8 2,15 6,21 4,6 9,11 15,15 6,3 13,6 21,7 7,2 15,2 22,2 30,0 53,-8 69,-24 16,-17 24,-39 24,-67l0 -15zm-271 -192c27,-25 57,-43 92,-56 35,-13 71,-19 108,-19 37,0 69,5 95,14 26,9 47,24 63,43 17,20 28,44 36,74 7,29 11,65 11,105l0 225 -134 0 0 -47 -3 0c-12,18 -29,33 -52,43 -23,10 -48,15 -75,15 -18,0 -36,-2 -55,-7 -20,-5 -37,-13 -53,-23 -16,-11 -29,-25 -39,-43 -10,-18 -15,-40 -15,-67 0,-32 9,-58 26,-78 18,-20 41,-35 68,-46 28,-10 59,-18 93,-21 35,-4 68,-6 100,-6l0 -7c0,-22 -8,-38 -23,-49 -16,-10 -35,-15 -58,-15 -21,0 -41,4 -60,13 -20,9 -36,20 -50,32l-75 -80z"/>
     <path class="fil15" d="M10018 4974c0,-14 -3,-28 -8,-42 -5,-14 -12,-26 -22,-37 -9,-11 -20,-19 -33,-26 -13,-7 -28,-10 -45,-10 -17,0 -33,3 -46,10 -13,7 -24,15 -33,26 -9,10 -16,22 -20,36 -5,14 -7,28 -7,42 0,15 2,29 7,43 4,14 11,26 20,37 9,11 20,20 33,26 13,7 29,10 46,10 17,0 32,-3 45,-10 13,-6 24,-15 33,-26 10,-11 17,-23 22,-37 5,-13 8,-28 8,-42zm5 224l0 -58 -2 0c-14,23 -35,40 -61,53 -27,12 -55,18 -85,18 -34,0 -63,-7 -90,-20 -26,-13 -48,-30 -67,-52 -18,-22 -32,-47 -41,-76 -10,-29 -15,-59 -15,-90 0,-31 5,-61 15,-89 10,-29 24,-53 42,-75 18,-22 41,-39 67,-51 26,-13 55,-19 87,-19 33,0 61,6 84,19 22,12 40,26 53,41l1 0 0 -279 148 0 0 678 -136 0z"/>
     <path class="fil15" d="M10583 4924c0,-24 -7,-44 -22,-60 -15,-17 -37,-25 -66,-25 -14,0 -27,2 -39,6 -12,5 -23,11 -32,19 -9,7 -16,17 -21,27 -6,11 -9,21 -9,33l189 0zm136 56l0 18c0,6 -1,12 -1,17l-324 0c1,13 5,24 11,35 6,10 14,19 24,26 10,7 21,13 33,17 13,5 25,7 38,7 24,0 44,-5 60,-13 16,-9 29,-20 39,-34l103 65c-21,30 -49,54 -83,70 -35,17 -75,25 -120,25 -34,0 -65,-5 -95,-16 -30,-10 -56,-26 -79,-46 -22,-20 -40,-44 -53,-74 -13,-29 -19,-63 -19,-100 0,-37 6,-70 19,-99 12,-30 29,-55 51,-76 21,-20 47,-36 76,-48 29,-11 61,-17 95,-17 33,0 63,6 91,17 27,11 51,27 71,48 20,21 35,46 46,76 11,30 17,64 17,102z"/>
    </g>
   </g>
  </g>
 </g>
</svg>
